<svg xmlns="http://www.w3.org/2000/svg" width="300" height="300"><rect width="100%" height="100%" fill="white"/><path d="M111.66796493530273 224.03597259521484C109.18904495239258 214.474365234375 108.56931686401367 204.73564910888672 110.14076232910156 194.93060684204102C110.36211013793945 193.51404190063477 110.4063835144043 192.07545852661133 110.5613021850586 190.19404220581055C107.90530776977539 191.19007110595703 105.69197845458984 192.0976104736328 103.41225051879883 192.8279151916504C96.99356842041016 194.93060684204102 90.66343688964844 197.45383834838867 84.08987426757812 198.8924217224121C75.88880157470703 200.68426895141602 67.49998474121094 200.7326316833496 59.121734619140625 200.78085708618164C56.736907958984375 200.79463958740234 54.35295867919922 200.80841827392578 51.97441101074219 200.86231994628906C51.48747253417969 200.88447189331055 51.00053405761719 200.81800842285156 50.53575897216797 200.70737075805664C44.53761291503906 199.35726928710938 38.384552001953125 198.42770767211914 32.58563232421875 196.5021209716797C25.59149932861328 194.1780128479004 19.084304809570312 190.63673782348633 13.263259887695312 185.98879623413086C10.31951904296875 183.66468811035156 9.500564575195312 180.765230178833 10.275253295898438 176.98051834106445C13.041915893554688 163.56773376464844 20.54510498046875 153.09858322143555 30.615768432617188 144.37805128097534C38.67229461669922 137.40613746643066 47.61414337158203 131.62937355041504 56.865882873535156 126.31732368469238C64.14773559570312 122.13409423828125 71.7394790649414 118.88056182861328 80.06159210205078 117.4196891784668C82.25279998779297 117.02130508422852 84.39973449707031 116.42379760742188 87.12212753295898 115.78184509277344C84.82024383544922 112.904541015625 82.91677856445312 110.44777297973633 80.96907043457031 108.03518295288086C74.9709243774414 100.57626724243164 69.32691955566406 92.89606857299805 66.11759948730469 83.73284149169922C64.28052520751953 78.48725891113281 62.20002746582031 73.33016204833984 60.407196044921875 68.0845718383789C56.910125732421875 57.83683776855469 56.201881408691406 47.279197692871094 57.640533447265625 36.611061096191406C58.326690673828125 31.476112365722656 59.101341247558594 26.341171264648438 61.22615051269531 21.516128540039062C62.57628631591797 18.461715698242188 64.76746368408203 16.624618530273438 68.109619140625 16.42535400390625C74.2626724243164 16.026962280273438 80.41573333740234 15.783538818359375 86.48023986816406 17.443527221679688C95.88690185546875 20.033096313476562 104.51891326904297 24.105682373046875 112.44264602661133 29.8824462890625C127.29408264160156 40.72782897949219 141.43727111816406 52.12640380859375 149.78154090046883 69.12477111816406C149.98073264025152 69.5453109741211 150.11352713406086 70.01016235351562 150.44554716348648 70.96187591552734C152.4154109954834 67.907470703125 153.80982065200806 65.78275299072266 155.15995454788208 63.65791320800781C161.0695457458496 54.47252655029297 167.46607398986816 45.72998046875 176.43004035949707 39.15631103515625C179.63939666748047 36.81018829345703 182.69380569458008 34.24278259277344 185.81461334228516 31.76386260986328C195.11056518554688 24.39342498779297 205.7345962524414 19.944610595703125 217.33243560791016 17.974716186523438C222.29027557373047 17.133636474609375 227.40306854248047 17.045150756835938 232.47161102294922 16.8680419921875C235.50386810302734 16.735244750976562 237.8279037475586 18.28460693359375 238.97881317138672 21.184066772460938C240.28467559814453 24.548377990722656 241.72332763671875 27.912551879882812 242.58655548095703 31.409652709960938C245.17611694335938 41.834495544433594 244.46790313720703 52.303504943847656 241.74547576904297 62.595550537109375C238.86817169189453 73.46295166015625 234.79558563232422 83.93196868896484 229.9705352783203 94.11337661743164C226.98252868652344 100.37714004516602 223.13134765625 106.04326629638672 218.46125030517578 111.1780776977539C216.84549713134766 112.94884872436523 215.2740478515625 114.76379776000977 213.68045043945312 116.55659103393555C214.0345916748047 116.88850784301758 214.1673812866211 117.15409851074219 214.3665771484375 117.22056198120117C215.760986328125 117.6411018371582 217.13323974609375 118.03948593139648 218.52764892578125 118.41571426391602C229.88198852539062 121.40379333496094 241.03719329833984 124.72378921508789 250.8865509033203 131.58506393432617C260.4924011230469 138.2693691253662 270.43023681640625 144.40020608901978 277.60147857666016 154.09460973739624C282.31581115722656 160.51332569122314 285.81292724609375 167.44106483459473 288.7566223144531 174.7228775024414C289.30995178222656 176.05095672607422 289.5312957763672 177.5116958618164 289.8190460205078 178.92826080322266C290.3502197265625 181.49566650390625 289.7304992675781 183.81963729858398 287.7163543701172 185.50179290771484C284.75050354003906 187.980712890625 281.8288879394531 190.61458206176758 278.5531921386719 192.58448028564453C269.5891647338867 197.96286010742188 259.6513214111328 200.5745735168457 249.27079010009766 201.10575103759766C242.7635955810547 201.43780517578125 236.23430633544922 201.30501174926758 229.70494842529297 201.01726913452148C216.60199737548828 200.44178009033203 203.74254608154297 198.53834915161133 191.87911987304688 192.36320114135742C190.9716453552246 191.89835357666016 189.95352935791016 191.63276290893555 189.0239028930664 191.30070877075195C189.0239028930664 192.52774047851562 189.01519012451172 193.72451400756836 189.0066795349121 194.8995361328125L189.00667572021484 194.90024185180664C188.98796463012695 197.47657775878906 188.97000885009766 199.9493293762207 189.04605865478516 202.41167831420898C189.35588836669922 211.61907958984375 189.22309494018555 220.76014709472656 186.5892219543457 229.72425079345703C183.20282745361328 241.1671371459961 180.5689582824707 252.7871322631836 173.48633766174316 262.8799133300781C168.6833782196045 269.71903228759766 162.92873668670654 275.4294662475586 156.6207275390625 280.69720458984375C155.60261392593384 281.5382843017578 154.40739583969116 282.20225524902344 153.2564878463745 282.8442077636719C150.9767251610756 284.10569763183594 148.54208052158356 284.30494689941406 146.37302494049072 282.8442077636719C142.45541858673096 280.23236083984375 138.3607416152954 277.77559661865234 134.95222568511963 274.58839416503906C127.60394859313965 267.7271194458008 122.33624076843262 259.2721710205078 119.14903831481934 249.75487518310547C116.31597518920898 241.29993438720703 113.9034194946289 232.6900405883789 111.66796493530273 224.03597259521484ZM216.73485565185547 140.10633754730225C205.02631378173828 135.74613857269287 192.8086814880371 133.42216682434082 180.50256156921387 131.47442436218262C178.88687324523926 131.2309913635254 177.27111625671387 130.9210910797119 175.10202598571777 130.54472732543945C176.89488792419434 128.84055519104004 178.3113842010498 127.60109329223633 179.61724281311035 126.22883987426758C186.72201919555664 118.76992225646973 193.3177719116211 110.86831283569336 198.85110092163086 102.214111328125C201.81695556640625 97.56616592407227 204.3401870727539 92.47553253173828 206.15506744384766 87.27412033081055C209.27587509155273 78.28800201416016 211.68839645385742 69.03629302978516 214.43297576904297 59.91737365722656C215.05270385742188 57.83683776855469 214.96414947509766 55.84478759765625 214.12307739257812 53.897178649902344C212.97216796875 51.218994140625 210.8030776977539 49.93522644042969 207.99217224121094 50.68782043457031C201.5735206604004 52.391990661621094 195.37615203857422 54.58330535888672 189.88713455200195 58.63360595703125C180.59111404418945 65.49501037597656 173.11004257202148 73.97197723388672 167.13405227661133 83.73284149169922C162.48607730865479 91.34671020507812 158.30288124084473 99.24832153320312 153.9204602241516 107.03915786743164C153.2786090373993 108.16797637939453 152.68099999427795 109.34110641479492 151.95059645175934 110.69120788574219C151.5522129535675 110.3371353149414 151.22019302845 110.18218612670898 151.10955345630646 109.93861389160156C146.30662775039673 99.15970230102539 139.6002016067505 89.55391693115234 132.56182289123535 80.1694107055664C128.68849182128906 75.03446960449219 123.90768814086914 70.6962890625 118.70637893676758 66.93359375C111.7343635559082 61.93144989013672 104.6517105102539 57.10639953613281 97.48050308227539 52.414146423339844C95.73198699951172 51.28532409667969 93.49653244018555 50.555023193359375 91.43811798095703 50.37792205810547C88.22879409790039 50.112327575683594 86.08185958862305 52.10438537597656 85.94906616210938 55.33576202392578C85.66131591796875 61.732322692871094 85.74987030029297 68.0845718383789 87.80825424194336 74.32618713378906C91.59306716918945 85.90186309814453 97.72396850585938 96.08327102661133 105.62557983398438 105.20218658447266C111.22530746459961 111.66508102416992 117.22341537475586 117.81806945800781 123.04449081420898 124.1039924621582C123.90768814086914 125.05570793151855 124.8151626586914 125.9632511138916 126.14317512512207 127.3576602935791C123.55354690551758 127.68957901000977 121.62796020507812 127.71173286437988 119.81304550170898 128.17658233642578C110.22931289672852 130.6776580810547 100.62342834472656 133.0679588317871 91.15037155151367 135.9010877609253C84.997314453125 137.73805618286133 79.41973876953125 141.0580539703369 74.24051666259766 144.84289932250977C67.11358642578125 150.04430986195803 60.2080078125 155.53332901000977 53.23602294921875 160.9117088317871C51.48747253417969 162.26180839538574 50.070945739746094 163.8996524810791 49.539764404296875 166.13513946533203C48.809364318847656 169.2338581085205 49.67256164550781 171.5356731414795 52.616294860839844 172.6423397064209C58.370933532714844 174.8113613128662 64.16989135742188 176.62631034851074 70.50001525878906 176.69277381896973C82.80613708496094 176.82556915283203 94.51464462280273 174.19169807434082 105.75837707519531 169.47729110717773C113.88129806518555 166.0909652709961 121.78290939331055 162.17332458496094 129.79515838623047 158.47709846496582C130.85754776000977 157.9900951385498 131.9420928955078 157.4589171409607 133.44714164733887 156.75063467025757C132.96020698547363 159.95999240875244 132.29623413085938 162.74881172180176 132.1191635131836 165.5596513748169C131.6100730895996 174.83351707458496 131.0124969482422 184.12953567504883 130.94610023498535 193.40340042114258C130.87970352172852 199.9549102783203 132.4511489868164 206.37349319458008 134.50956630706787 212.57093048095703C137.14340209960938 220.47240447998047 139.97649765014648 228.32984161376953 142.9423542022705 236.09851837158203C143.67275762557983 238.0462646484375 145.04501247406006 239.9498291015625 146.59433794021606 241.29993438720703C149.05113738775253 243.4468002319336 151.95059645175934 243.13703155517578 153.98685765266418 240.61380767822266C157.90446424484253 235.70013427734375 161.51220512390137 230.63166046142578 163.48206901550293 224.47853088378906C167.24472618103027 212.65941619873047 168.48418617248535 200.6188850402832 167.33327865600586 188.33491897583008C166.53647804260254 179.9242877960205 165.36338138580322 171.5356731414795 164.36738872528076 163.14719581604004C164.2124729156494 161.8855800628662 164.10179996490479 160.6239652633667 163.94684982299805 158.85332679748535C165.4076566696167 159.62793922424316 166.337251663208 160.1370973587036 167.28900337219238 160.60181045532227C179.01966667175293 166.400728225708 191.06019592285156 171.35857009887695 203.94173431396484 173.88179969787598C211.65996170043945 175.4061679840088 219.46234893798828 175.21474266052246 227.26081085205078 175.02331924438477C228.4077377319336 174.99508476257324 229.55452728271484 174.96698570251465 230.7009735107422 174.94429206848145C234.79558563232422 174.85567092895508 238.91241455078125 174.54577255249023 243.00709533691406 174.32449340820312C243.8481674194336 174.28018379211426 244.71133422851562 174.19169807434082 245.50817108154297 173.9482650756836C250.75375366210938 172.44321632385254 252.0153045654297 168.48126602172852 249.1158447265625 163.8996524810791C241.3913345336914 151.7263284921646 229.7491912841797 144.95353889465332 216.73485565185547 140.10633754730225ZM139.22393894195557 132.6474208831787C140.17568969726562 131.27516555786133 140.9946117401123 129.81442642211914 141.83568859100342 128.37570571899414C143.1415457725525 126.14021873474121 144.9564938545227 124.74580955505371 147.72315859794617 124.61301612854004C148.9847401380539 124.945068359375 150.26847657561302 125.2771224975586 151.53005802631378 125.60904121398926C152.57032656669617 125.87462997436523 153.58847403526306 126.2509937286377 154.62874269485474 126.40580940246582C159.05540561676025 126.95914077758789 161.18018531799316 129.32742309570312 161.26873779296875 133.86472511291504C161.27316188812256 134.15219974517822 161.27491855621338 134.4398078918457 161.27670764923096 134.72714710235596C161.283766746521 135.87758255004883 161.2908592224121 137.0251808166504 161.4679298400879 138.15859413146973C162.15405654907227 142.38613367080688 160.58261013031006 145.15279817581177 156.57648515701294 146.56936287879944C155.22635173797607 147.0562310218811 153.80982065200806 147.38828492164612 152.5482053756714 148.0301023721695C148.34288883209229 150.17710435390472 145.28848028182983 149.4909769296646 142.54393672943115 145.7061309814453C141.79141235351562 144.6437749862671 141.01673221588135 143.55912923812866 140.10929203033447 142.65172243118286C136.9220895767212 139.48667430877686 136.63434505462646 136.34378147125244 139.22393894195557 132.6474208831787Z" fill="black"/></svg>