<svg xmlns="http://www.w3.org/2000/svg" viewBox="0 0 346.525 32" width="346.525" height="32" role="img" aria-label="Scion International">
  <title>Scion International</title>
  <path transform="translate(-0.834 26.551) scale(0.028868412)" fill="#33243d" d="M39.0 -526.8Q39.0 -591.1 72.0 -640.1Q105.1 -689.0 163.8 -716.7Q222.4 -744.4 298.7 -744.4Q373.0 -744.4 427.6 -718.4Q482.1 -692.3 512.6 -644.3Q543.0 -596.3 545.1 -530.2H417.4Q415.3 -577.3 383.3 -603.8Q351.4 -630.4 297.3 -630.4Q238.4 -630.4 202.6 -603.7Q166.8 -577.0 166.8 -531.0Q166.8 -491.9 188.6 -469.3Q210.3 -446.6 255.9 -436.2L371.4 -410.5Q464.7 -390.5 510.9 -341.8Q557.1 -293.0 557.1 -211.0Q557.1 -143.6 523.9 -93.0Q490.7 -42.3 430.5 -14.8Q370.3 12.7 289.5 12.7Q212.3 12.7 153.9 -13.5Q95.6 -39.7 63.1 -87.9Q30.7 -136.1 28.9 -200.9H156.9Q157.8 -154.6 193.3 -128.1Q228.7 -101.6 290.2 -101.6Q354.2 -101.6 391.7 -128.1Q429.3 -154.6 429.3 -199.5Q429.3 -237.1 409.1 -259.3Q389.0 -281.6 344.2 -291.3L228.2 -316.7Q134.9 -336.7 86.9 -389.5Q39.0 -442.4 39.0 -526.8Z M1020.1 11.7Q913.3 11.7 834.4 -34.8Q755.5 -81.3 712.1 -165.9Q668.7 -250.5 668.7 -364.8Q668.7 -478.7 713.5 -563.7Q758.3 -648.6 839.1 -695.8Q919.8 -743.0 1026.2 -743.0Q1113.2 -743.0 1182.3 -711.2Q1251.3 -679.3 1296.1 -621.5Q1340.9 -563.6 1353.1 -485.1H1217.5Q1199.1 -549.2 1147.6 -584.6Q1096.1 -620.0 1022.5 -620.0Q955.6 -620.0 906.1 -588.9Q856.6 -557.9 829.9 -500.9Q803.1 -444.0 803.1 -365.5Q803.1 -288.7 830.2 -231.3Q857.3 -173.8 906.8 -142.6Q956.3 -111.3 1022.5 -111.3Q1096.8 -111.3 1150.1 -147.2Q1203.5 -183.0 1221.5 -244.3H1355.0Q1340.8 -167.7 1294.5 -109.9Q1248.2 -52.1 1177.7 -20.2Q1107.1 11.7 1020.1 11.7Z M1635.7 -731.0V0.0H1507.9V-731.0Z M2502.5 -366.2Q2502.5 -254.7 2457.4 -169.4Q2412.3 -84.1 2332.3 -36.1Q2252.2 12.0 2146.9 12.0Q2042.6 12.0 1962.8 -36.1Q1882.9 -84.1 1838.3 -169.1Q1793.7 -254.0 1793.7 -365.5Q1793.7 -477.0 1838.8 -562.3Q1883.9 -647.6 1963.6 -695.7Q2043.3 -743.7 2147.6 -743.7Q2252.9 -743.7 2332.6 -695.7Q2412.3 -647.6 2457.4 -562.7Q2502.5 -477.7 2502.5 -366.2ZM2368.1 -366.2Q2368.1 -444.4 2341.0 -501.3Q2314.0 -558.3 2264.9 -589.5Q2215.8 -620.7 2148.3 -620.7Q2081.1 -620.7 2031.7 -589.5Q1982.2 -558.3 1955.2 -501.3Q1928.1 -444.4 1928.1 -366.2Q1928.1 -288.3 1955.2 -230.9Q1982.2 -173.4 2031.7 -142.2Q2081.1 -111.0 2148.3 -111.0Q2215.8 -111.0 2264.9 -142.6Q2314.0 -174.1 2341.0 -231.6Q2368.1 -289.0 2368.1 -366.2Z M2786.3 0.0H2659.9V-731.0H2786.6L3167.5 -155.9H3129.8V-731.0H3256.2V0.0H3129.8L2748.9 -574.4H2786.3Z M3890.7 -731.0V0.0H3762.9V-731.0Z M4217.3 0.0H4090.9V-731.0H4217.6L4598.5 -155.9H4560.8V-731.0H4687.2V0.0H4560.8L4179.9 -574.4H4217.3Z M5164.7 -670.4V0.0H5036.9V-670.4ZM4823.0 -612.8V-731.0H5378.6V-612.8Z M5969.3 0.0H5514.9V-731.0H5969.0V-612.8H5597.7L5642.7 -653.6V-424.9H5934.6V-312.3H5642.7V-77.1L5597.7 -118.2H5969.3Z M6273.7 0.0H6145.9V-731.0H6424.7Q6549.5 -731.0 6618.8 -671.1Q6688.1 -611.1 6688.1 -503.3Q6688.1 -429.5 6654.5 -378.0Q6620.8 -326.6 6556.1 -299.7L6694.8 0.0H6554.7L6430.5 -273.4H6273.7ZM6273.7 -617.0V-386.0H6424.6Q6485.7 -386.0 6519.7 -417.0Q6553.7 -447.9 6553.7 -502.7Q6553.7 -558.4 6519.8 -587.7Q6485.9 -617.0 6424.7 -617.0Z M6980.3 0.0H6853.9V-731.0H6980.6L7361.5 -155.9H7323.8V-731.0H7450.2V0.0H7323.8L6942.9 -574.4H6980.3Z M7712.5 0.0H7579.8L7843.5 -731.0H7975.4L8239.3 0.0H8104.2L8045.3 -168.9H7771.8ZM7892.8 -512.7 7809.5 -277.3H8008.3L7924.4 -512.7Q7919.9 -527.5 7915.1 -542.8Q7910.3 -558.2 7908.6 -568.5Q7906.9 -558.5 7902.6 -543.2Q7898.3 -527.9 7892.8 -512.7Z M8581.7 -670.4V0.0H8453.9V-670.4ZM8240.0 -612.8V-731.0H8795.6V-612.8Z M9059.7 -731.0V0.0H8931.9V-731.0Z M9926.5 -366.2Q9926.5 -254.7 9881.4 -169.4Q9836.3 -84.1 9756.3 -36.1Q9676.2 12.0 9570.9 12.0Q9466.6 12.0 9386.8 -36.1Q9306.9 -84.1 9262.3 -169.1Q9217.7 -254.0 9217.7 -365.5Q9217.7 -477.0 9262.8 -562.3Q9307.9 -647.6 9387.6 -695.7Q9467.3 -743.7 9571.6 -743.7Q9676.9 -743.7 9756.6 -695.7Q9836.3 -647.6 9881.4 -562.7Q9926.5 -477.7 9926.5 -366.2ZM9792.1 -366.2Q9792.1 -444.4 9765.0 -501.3Q9738.0 -558.3 9688.9 -589.5Q9639.8 -620.7 9572.3 -620.7Q9505.1 -620.7 9455.7 -589.5Q9406.2 -558.3 9379.2 -501.3Q9352.1 -444.4 9352.1 -366.2Q9352.1 -288.3 9379.2 -230.9Q9406.2 -173.4 9455.7 -142.2Q9505.1 -111.0 9572.3 -111.0Q9639.8 -111.0 9688.9 -142.6Q9738.0 -174.1 9765.0 -231.6Q9792.1 -289.0 9792.1 -366.2Z M10210.3 0.0H10083.9V-731.0H10210.6L10591.5 -155.9H10553.8V-731.0H10680.2V0.0H10553.8L10172.9 -574.4H10210.3Z M10942.5 0.0H10809.8L11073.5 -731.0H11205.4L11469.3 0.0H11334.2L11275.3 -168.9H11001.8ZM11122.8 -512.7 11039.5 -277.3H11238.3L11154.4 -512.7Q11149.9 -527.5 11145.1 -542.8Q11140.3 -558.2 11138.6 -568.5Q11136.9 -558.5 11132.6 -543.2Q11128.3 -527.9 11122.8 -512.7Z M11726.7 -731.0V0.0H11598.9V-731.0ZM11621.3 0.0V-118.2H12032.5V0.0Z"/>
</svg>
