<?xml version="1.0" encoding="UTF-8" standalone="no"?>
<svg
   xmlns:dc="http://purl.org/dc/elements/1.1/"
   xmlns:cc="http://creativecommons.org/ns#"
   xmlns:rdf="http://www.w3.org/1999/02/22-rdf-syntax-ns#"
   xmlns:svg="http://www.w3.org/2000/svg"
   xmlns="http://www.w3.org/2000/svg"
   xmlns:sodipodi="http://sodipodi.sourceforge.net/DTD/sodipodi-0.dtd"
   xmlns:inkscape="http://www.inkscape.org/namespaces/inkscape"
   width="41.203693mm"
   height="40.281796mm"
   viewBox="0 0 41.203693 40.281796"
   version="1.1"
   id="svg104"
   inkscape:version="1.0.2 (e86c870879, 2021-01-15, custom)"
   sodipodi:docname="Abstract floral ornament.svg">
  <defs
     id="defs98" />
  <sodipodi:namedview
     id="base"
     pagecolor="#ffffff"
     bordercolor="#666666"
     borderopacity="1.0"
     inkscape:pageopacity="0.0"
     inkscape:pageshadow="2"
     inkscape:zoom="1.4"
     inkscape:cx="-253.14505"
     inkscape:cy="-44.110187"
     inkscape:document-units="mm"
     inkscape:current-layer="layer1"
     inkscape:document-rotation="0"
     showgrid="false"
     inkscape:window-width="1920"
     inkscape:window-height="1057"
     inkscape:window-x="-8"
     inkscape:window-y="-8"
     inkscape:window-maximized="1" />
  <metadata
     id="metadata101">
    <rdf:RDF>
      <cc:Work
         rdf:about="">
        <dc:format>image/svg+xml</dc:format>
        <dc:type
           rdf:resource="http://purl.org/dc/dcmitype/StillImage" />
        <dc:title></dc:title>
      </cc:Work>
    </rdf:RDF>
  </metadata>
  <g
     inkscape:label="Layer 1"
     inkscape:groupmode="layer"
     id="layer1"
     transform="translate(-123.29964,-147.71233)">
    <path
       style="fill:#000000;stroke-width:0.264583"
       d="m 126.31754,187.71563 c -1.5739,-0.0671 -2.52501,-0.20942 -2.42715,-0.36314 0.0885,-0.13902 0.0646,-0.254 -0.0531,-0.25552 -0.11772,-0.002 -0.1779,-2.71123 -0.13374,-6.02159 0.11171,-8.3734 0.0201,-12.81345 -0.27633,-13.39836 -0.16541,-0.32636 -0.1635,-0.44165 0.005,-0.33405 0.16652,0.10602 0.26415,-1.66541 0.27512,-4.99192 0.28747,-3.21911 0.006,-6.59763 -0.004,-9.52255 -0.004,-2.67719 0.0832,-3.55612 0.39248,-3.96387 0.38119,-0.50272 0.74872,-0.5222 9.08419,-0.48189 4.77781,0.0231 8.84363,-0.011 9.03517,-0.0757 0.19152,-0.0648 4.00261,-0.12148 8.46909,-0.12605 4.46648,-0.005 9.01484,-0.0776 10.10747,-0.16222 1.72062,-0.13331 2.06822,-0.0859 2.59618,0.35372 0.54123,0.45073 0.62537,0.81357 0.75064,3.23697 0.0776,1.50113 0.0999,5.81456 0.0496,9.58539 -0.0503,3.77084 -0.032,6.85721 0.0408,6.85862 0.14659,0.003 0.0103,5.12005 -0.17803,6.68032 -0.0658,0.54487 -0.0435,0.99168 0.0494,0.99292 0.0929,0.001 0.15823,1.40123 0.14521,3.11108 -0.0128,1.70985 -0.003,4.18825 0.0233,5.50757 0.0512,2.61353 -0.21873,3.45858 -1.17384,3.67515 -0.63154,0.1432 -32.45814,-0.12061 -36.77829,-0.30485 z m 0.62318,-1.43733 c 0.002,-0.18189 -0.23776,-0.73847 -0.53253,-1.23682 l -0.53596,-0.9061 -0.56431,0.54945 c -0.48226,0.46956 -0.52106,0.64784 -0.26682,1.22615 0.2231,0.50749 0.49738,0.67937 1.09685,0.68737 0.46363,0.006 0.80078,-0.12823 0.80277,-0.32005 z m 7.03258,0.15992 c 0.99,0.0132 1.43485,-0.0859 1.43797,-0.32029 0.006,-0.44209 -0.93633,-1.69405 -2.04784,-2.721 -1.3842,-1.2789 -4.17018,-5.20678 -4.49089,-6.33157 -0.38766,-1.35958 -0.94948,-1.3106 -1.91054,0.16658 -1.38971,2.13603 -0.92587,5.2582 1.12284,7.55797 1.15703,1.29884 2.87287,2.01662 4.10146,1.71577 0.19446,-0.0476 0.9986,-0.078 1.787,-0.0675 z m 10.02389,-0.46164 c -0.0966,-0.32874 -0.34364,-0.93886 -0.54892,-1.35581 -0.47285,-0.96046 -0.24129,-2.62014 0.49213,-3.52737 0.29892,-0.36976 0.5465,-0.897 0.55016,-1.17164 0.004,-0.27464 0.49809,-1.01843 1.09873,-1.65284 0.95281,-1.0064 1.27407,-1.17377 2.51929,-1.31251 1.19113,-0.13272 1.57591,-0.0644 2.32617,0.41328 0.49444,0.31478 1.43261,0.67938 2.08484,0.81026 1.10645,0.22202 1.21351,0.1923 1.59878,-0.44384 0.22711,-0.37498 0.55464,-1.18416 0.72784,-1.79816 0.20887,-0.74048 0.6269,-1.35858 1.2415,-1.83569 0.50962,-0.39562 0.9294,-0.93031 0.93285,-1.18821 0.0179,-1.33942 -3.80224,-4.23878 -6.79287,-5.15559 -1.91398,-0.58675 -2.71085,-0.56523 -3.57566,0.0965 -0.90446,0.69213 -2.7927,0.89836 -4.09929,0.44774 -1.26572,-0.43653 -2.26156,0.005 -3.30243,1.46531 -0.86541,1.21389 -0.928,2.07064 -0.20867,2.85708 1.2202,1.33407 0.65384,3.80792 -1.06146,4.63644 -1.5459,0.7467 -1.71823,0.98957 -1.54444,2.17662 0.17971,1.22743 1.63711,4.48421 2.44182,5.45661 0.63308,0.765 2.8598,1.62616 4.2855,1.65738 0.92671,0.0204 0.99535,-0.0271 0.83413,-0.5756 z m 5.6152,-0.31566 c -0.0835,-0.55035 -0.14929,-1.27844 -0.14636,-1.61798 0.008,-0.87237 -0.58636,-0.58995 -0.8594,0.40868 -0.24089,0.88106 -0.58402,1.06388 -2.14101,1.14074 -0.88692,0.0438 -1.25612,0.38423 -0.85899,0.7921 0.078,0.0802 1.04541,0.1753 2.14969,0.21143 l 2.00777,0.0657 z m 4.57565,0.53508 c 0.78257,-1.41648 -2.015,-4.23762 -3.22951,-3.25672 -0.4938,0.3988 -0.71516,1.86817 -0.38111,2.52972 0.43544,0.86234 1.02899,1.18709 2.21493,1.21186 0.83717,0.0172 1.1849,-0.10331 1.39569,-0.48486 z m 8.5151,0.1794 c 0.35229,-0.41316 0.49405,-3.37951 0.17705,-3.70508 -0.0818,-0.0839 -0.59475,0.22867 -1.14002,0.6947 -0.91768,0.7843 -1.09077,0.83421 -2.32707,0.67104 -0.7346,-0.097 -1.67178,-0.43181 -2.08262,-0.74412 -0.41084,-0.3123 -0.77304,-0.52792 -0.80488,-0.47915 -0.10288,0.15758 -0.76194,2.43893 -0.91816,3.17821 l -0.1516,0.71752 3.44411,0.0439 c 2.84119,0.0359 3.50697,-0.0297 3.80319,-0.37711 z m -16.24523,-2.3505 c -0.0829,-0.54687 -0.1461,-1.44076 -0.14043,-1.98643 0.009,-0.81479 -0.0843,-0.9934 -0.51879,-0.9992 -0.87251,-0.0116 -1.59988,0.91738 -1.61516,2.06291 -0.0142,1.06321 0.26694,1.4745 1.16793,1.70876 1.18771,0.3088 1.26421,0.25446 1.10645,-0.78604 z m 9.10327,-0.88924 c 0.0147,-1.10237 -0.0365,-1.20218 -0.58026,-1.13232 -0.76378,0.0981 -0.95217,1.12169 -0.33532,1.82185 0.69191,0.78536 0.89797,0.63018 0.91558,-0.68953 z m -19.71581,-0.0462 c -0.10227,-0.25606 -0.30149,-0.94338 -0.44271,-1.52741 -0.33114,-1.36936 -0.87355,-1.99721 -1.731,-2.00358 -1.15418,-0.008 -1.38956,0.28426 -0.95177,1.18408 0.77363,1.59004 3.70113,3.78829 3.12548,2.34691 z m 12.61575,-0.28773 c 0.43251,-0.35418 1.25911,-0.77876 1.83689,-0.9435 1.18886,-0.33898 1.30668,-0.58788 0.49148,-1.03826 -0.53416,-0.29511 -3.02709,-0.47418 -3.27267,-0.23507 -0.27122,0.26409 -0.27332,2.85506 -0.002,2.85867 0.0881,0.001 0.5141,-0.28765 0.94662,-0.64184 z m 12.78245,-0.29231 c 0.23083,-0.32037 0.42228,-0.77633 0.42544,-1.01324 0.005,-0.36589 -0.18386,-0.4028 -1.25361,-0.24517 -1.73529,0.25571 -2.72098,0.65654 -2.72702,1.10895 -0.007,0.50199 0.39499,0.64927 1.89414,0.6945 0.99697,0.0301 1.32399,-0.0772 1.66105,-0.54504 z m -7.12899,-1.15354 c 0.61259,-0.85023 0.52961,-1.20288 -0.42402,-1.80192 -0.78377,-0.49233 -2.04076,-0.74603 -2.0452,-0.41279 -0.004,0.28324 0.78563,2.0883 1.06403,2.43301 0.42068,0.52088 0.92958,0.44182 1.40519,-0.2183 z m 4.12505,-0.6478 c 0.004,-0.29734 -0.29549,-0.62692 -0.74536,-0.82033 -0.74477,-0.3202 -1.86821,-1.6159 -1.86113,-2.14651 0.002,-0.1514 -0.1749,-0.27765 -0.39318,-0.28056 -0.91943,-0.0123 -0.21251,2.47408 0.93943,3.30405 0.8434,0.60767 2.05182,0.57444 2.06023,-0.0566 z m 3.51077,-0.97755 c 0.66377,-0.73978 1.10456,-2.33152 0.80548,-2.90873 -0.34122,-0.65853 -1.04318,-1.24721 -1.24865,-1.04714 -0.0896,0.0872 -0.15611,0.8837 -0.1479,1.77003 0.008,0.88633 -0.11217,1.8415 -0.26744,2.12259 -0.37057,0.67076 0.27101,0.71802 0.85851,0.0633 z m -12.22539,-0.32798 c 0.45772,-0.0171 0.68869,-0.19637 0.74889,-0.58125 0.20391,-1.30376 -2.64609,-1.46174 -4.09343,-0.22691 -0.9558,0.81547 -0.48964,1.21071 1.19174,1.01046 0.82003,-0.0977 1.78879,-0.1887 2.1528,-0.2023 z m 10.53324,0.0117 c 0.2354,-0.14493 0.3286,-0.68026 0.28656,-1.64591 l -0.0623,-1.43113 -1.23455,-0.001 c -1.5407,-0.002 -2.13183,0.43952 -2.0407,1.52266 0.0532,0.63168 0.27764,0.92512 0.98856,1.29219 1.01172,0.52239 1.53357,0.58905 2.06245,0.26343 z m -27.01261,-0.99632 c -0.4072,-0.33093 -1.07205,-0.87403 -1.47743,-1.20689 -0.85335,-0.70068 -1.05568,-0.74797 -1.06234,-0.24831 -0.009,0.64427 1.02816,1.73247 1.76717,1.85484 1.42869,0.23661 1.50617,0.19653 0.7726,-0.39964 z m 3.07894,-1.14158 c 0.47153,-0.41367 0.61254,-1.53893 0.33159,-2.64617 -0.19482,-0.76777 -0.49659,-0.75661 -1.59606,0.059 -0.4921,0.36505 -1.34281,0.81222 -1.89048,0.99368 -0.54766,0.18146 -0.99797,0.49653 -1.00069,0.70014 -0.003,0.20362 0.52717,0.64919 1.17753,0.99017 1.26291,0.66212 2.14571,0.6334 2.97811,-0.0969 z m -9.90813,-1.77844 c 0.68248,-1.01408 0.90732,-1.67486 1.05153,-3.09035 0.49829,-4.89103 1.48656,-9.19419 2.67226,-11.63574 0.879,-1.81001 0.99721,-2.42243 0.46892,-2.42948 -0.4142,-0.006 -2.70967,1.37731 -2.97305,1.79103 -0.68056,0.64748 -0.69693,0.71344 -1.21454,1.54084 -0.45406,0.54982 -0.94819,1.40672 -1.09808,1.90421 -0.30187,1.00192 -0.53439,12.75215 -0.25801,13.03604 0.31277,0.32124 0.47163,0.18995 1.35088,-1.11655 z m 31.19917,0.54494 c 0.3078,-0.20952 1.05815,-0.45386 1.66745,-0.54297 0.93275,-0.13642 1.09638,-0.25057 1.03546,-0.72236 -0.0911,-0.70556 -1.15697,-0.87848 -2.77139,-0.4496 -1.34119,0.35628 -1.52036,0.55293 -1.31061,1.43847 0.1757,0.74182 0.57722,0.82232 1.37909,0.27646 z m -25.2356,-1.16429 c -0.0806,-0.60866 -0.14165,-0.8167 -0.52345,-1.78497 -0.39972,-1.01372 -0.36147,-1.73194 0.17717,-3.32671 0.25084,-0.74266 0.36731,-1.43946 0.25884,-1.54843 -0.33558,-0.33709 -1.97786,1.75572 -2.45364,3.12674 -0.54295,1.5646 -0.38765,2.79314 0.47378,3.74788 0.5107,0.566 0.75213,0.65164 1.37673,0.48832 0.53941,-0.14103 0.73819,-0.34335 0.69057,-0.70283 z m 6.55551,0.0716 c 0.0204,-1.52697 -1.93934,-3.78969 -2.66786,-3.08036 -0.18692,0.182 -0.0149,0.59043 0.54051,1.28275 0.44811,0.55865 0.81206,1.21697 0.80878,1.46294 -0.0107,0.79901 0.2934,1.28829 0.80486,1.29512 0.40004,0.005 0.50341,-0.18792 0.51371,-0.96045 z m -4.02175,-1.01211 c 0.18376,-0.13831 0.33798,-0.54137 0.3427,-0.89569 0.008,-0.5943 -0.0786,-0.63908 -1.11687,-0.57787 -0.96446,0.0568 -1.13975,0.15867 -1.22535,0.71171 -0.17388,1.12337 0.95017,1.55165 1.99952,0.76185 z m 28.20495,-0.12586 c 0.17178,-0.6228 0.0836,-8.4516 -0.10591,-9.39822 -0.0763,-0.38137 -0.29749,-0.56918 -0.64493,-0.54766 -0.29081,0.018 -0.5302,0.14161 -0.53198,0.27466 -0.002,0.13306 -0.59323,0.17728 -1.31436,0.0983 -1.00512,-0.11011 -1.55023,-0.35686 -2.33549,-1.05709 -0.5634,-0.50239 -1.49958,-1.20435 -2.08042,-1.5599 -0.58083,-0.35556 -1.17568,-0.91859 -1.3219,-1.25117 -0.54241,-1.23382 0.13821,-3.09592 1.5179,-4.15286 0.89624,-0.68657 0.7805,-1.15789 -0.5901,-2.40292 -1.78351,-1.62011 -2.62304,-2.15058 -4.69996,-2.96973 -4.33148,-1.70836 -8.05883,-1.13179 -12.83942,1.98607 -1.46904,0.9581 -2.7149,2.14687 -2.60743,2.48795 0.0577,0.18292 0.96334,0.39397 2.19148,0.51068 1.15128,0.10937 2.34195,0.2833 2.64591,0.38641 0.31041,0.1053 0.98227,0.0151 1.53278,-0.20677 0.53906,-0.21684 1.90025,-0.45394 3.02484,-0.52689 1.85373,-0.12026 2.13001,-0.0735 2.95776,0.50052 1.10162,0.76395 1.55992,1.62537 1.548,2.90966 -0.007,0.72177 0.19172,1.16222 0.79762,1.77062 0.64918,0.65187 0.80641,1.03434 0.80596,1.96055 -4.5e-4,0.63289 -0.0819,1.50683 -0.18126,1.94211 -0.0994,0.43527 -0.0933,0.91898 0.0136,1.0749 0.10681,0.15592 1.02293,0.64125 2.03584,1.07852 2.08185,0.89875 4.23786,2.90681 5.77038,5.37442 0.725,1.16737 1.04362,1.45638 1.62158,1.47085 0.39561,0.0103 0.94806,0.19588 1.22767,0.41329 0.72886,0.56673 1.37884,0.49755 1.56192,-0.16626 z m -27.84374,-2.30721 c 0.5582,-0.65462 0.14668,-2.63075 -0.63815,-3.06435 -0.58301,-0.32209 -0.71792,-0.3014 -1.21961,0.18708 -0.3717,0.36193 -0.61427,1.00731 -0.71125,1.89238 l -0.14717,1.34316 1.19179,0.0159 c 0.73338,0.01 1.31971,-0.13414 1.52439,-0.37417 z m 2.48387,-1.36249 c -0.2469,-0.72739 -0.89997,-1.39716 -1.36839,-1.40341 -0.61014,-0.008 -0.44426,2.0393 0.17751,2.19095 0.70182,0.17118 1.36699,-0.2687 1.19088,-0.78754 z m -7.27013,-1.50298 c 1.2846,-1.49356 4.01793,-1.75886 6.05007,-0.58723 1.44723,0.8344 1.52105,0.84314 2.21761,0.26264 0.69916,-0.58264 0.68357,-0.79281 -0.15269,-2.0595 -0.95989,-1.45396 -0.9028,-2.89455 0.22894,-5.77618 1.2472,-3.17562 1.24196,-3.18615 -1.64749,-3.31071 -3.32957,-0.14352 -3.91733,0.17851 -5.32876,2.91955 -1.18845,2.30803 -2.3379,6.19113 -2.35736,7.96371 -0.0135,1.23994 0.27918,1.41381 0.98968,0.58772 z m 15.01407,-1.27946 c 1.21242,-0.55844 2.15402,-2.37357 1.92244,-3.70588 -0.14816,-0.85231 -0.21398,-0.90487 -0.95928,-0.76613 -0.97229,0.181 -1.75037,1.03514 -1.99545,2.19049 -0.10031,0.47291 -0.429,1.1649 -0.73043,1.53776 -0.45402,0.5616 -0.48504,0.719 -0.18082,0.91736 0.52731,0.3438 0.89067,0.31135 1.94354,-0.1736 z m -3.33193,-0.68283 c 1.23983,-0.41374 1.36242,-1.19118 0.34227,-2.17042 -1.06198,-1.01938 -1.55627,-2.23228 -1.53577,-3.76854 0.0228,-1.70719 -0.57289,-1.58563 -1.57168,0.32075 -0.95667,1.82601 -0.76431,4.61891 0.37968,5.51237 0.55345,0.43224 1.30719,0.46569 2.3855,0.10583 z m 7.65075,-1.92154 c 0.59048,-0.62033 0.65849,-0.86595 0.52036,-1.87913 -0.21547,-1.58029 -0.3038,-1.76718 -1.02279,-2.16441 -1.26668,-0.6998 -2.77312,0.26281 -1.93665,1.2375 0.21638,0.25215 0.48369,0.87642 0.59401,1.38726 0.11031,0.51083 0.22098,1.01838 0.24593,1.12786 0.0249,0.10948 0.0579,0.37783 0.0732,0.59634 0.0436,0.62396 0.782,0.47618 1.52599,-0.30542 z m -5.18579,-1.36271 c 0.84791,-0.69437 1.62665,-2.12814 1.63851,-3.01673 0.0166,-1.24262 -2.6839,-0.72511 -3.64394,0.69832 -0.68901,1.02157 -0.0547,2.92864 0.99451,2.99006 0.0979,0.005 0.55282,-0.29652 1.01092,-0.67165 z m 17.16437,-0.318 c 0.13123,-0.84138 -0.99787,-1.54814 -1.97579,-1.23677 -1.04051,0.33131 -1.05579,0.92994 -0.0373,1.45977 1.13739,0.59166 1.89914,0.50727 2.01305,-0.223 z m 1.12091,-1.63817 c 0.15438,-0.27944 0.28874,-1.11115 0.29857,-1.84827 0.0195,-1.46041 -0.58271,-2.40663 -1.53974,-2.41939 -0.65027,-0.009 -0.77909,0.20367 -0.99572,1.64132 -0.15816,1.0497 -0.0916,1.26546 0.66234,2.14764 0.95724,1.12003 1.18242,1.18849 1.57455,0.4787 z m -4.06209,-0.1804 c 0.0815,-0.2043 -0.16187,-0.85393 -0.5409,-1.44363 -0.37903,-0.58971 -0.7477,-1.55777 -0.81926,-2.15127 -0.19813,-1.64324 -0.96553,-1.40759 -1.67442,0.51416 -0.51936,1.40793 -0.2184,2.20094 1.08922,2.87007 1.31293,0.67183 1.74273,0.71837 1.94536,0.21067 z m -31.5289,-2.56094 c 0.75726,-0.6448 1.48774,-1.17089 1.6233,-1.16908 0.13556,0.002 1.0955,-0.39571 2.13318,-0.88337 1.34471,-0.63194 2.56975,-1.52778 4.26436,-3.1184 1.3077,-1.22745 2.48204,-2.23034 2.60964,-2.22864 0.12761,0.002 0.23662,-0.34283 0.24226,-0.76564 l 0.0103,-0.76874 -5.83982,-0.10151 c -3.38439,-0.0589 -6.04639,0.005 -6.3311,0.153 -0.68888,0.35695 -0.89451,1.49092 -0.93598,5.16191 -0.038,3.37323 0.14106,4.88345 0.58008,4.88931 0.14685,0.002 0.88657,-0.524 1.64382,-1.1688 z m 15.85921,1.01845 c 0.21388,-0.20827 0.70307,-0.45307 1.08708,-0.54403 0.38401,-0.091 0.77003,-0.27821 0.85784,-0.41613 0.20236,-0.31787 -0.65729,-1.00076 -1.28431,-1.02024 -0.63955,-0.0198 -1.78922,1.13597 -1.79818,1.80783 -0.008,0.62929 0.57724,0.71814 1.13757,0.17257 z m 16.62606,0.14259 c 0.0249,-0.25436 0.0721,-0.64072 0.10457,-0.85859 0.0326,-0.21786 0.0813,-0.7303 0.1083,-1.13874 0.0269,-0.40845 0.15614,-0.67448 0.28699,-0.59118 0.13085,0.0833 0.185,-0.0624 0.12034,-0.32394 -0.0666,-0.26942 0.12159,-0.6861 0.43442,-0.9617 0.30359,-0.26747 0.55332,-0.5869 0.55496,-0.70986 0.005,-0.40471 -1.17145,-0.247 -2.05437,0.27531 -0.81114,0.47983 -0.86808,0.60753 -0.8865,1.98811 -0.0132,0.98616 0.13102,1.68851 0.4348,2.11823 0.54183,0.76643 0.83466,0.83254 0.89645,0.20235 z m -11.46787,-1.10745 c 0.40844,-0.86563 -0.0739,-1.77435 -1.26117,-2.37596 -0.78918,-0.3999 -1.08067,-0.43024 -1.71547,-0.1786 -0.42061,0.16672 -0.84163,0.28695 -0.93559,0.26717 -0.0939,-0.0198 -0.11275,0.19889 -0.0418,0.48593 0.0712,0.28762 0.35447,0.5249 0.63122,0.52859 0.27618,0.004 0.94133,0.42609 1.47811,0.93868 1.1578,1.10564 1.45525,1.15953 1.84468,0.33419 z m -6.73521,-0.52457 c 0.37385,-0.28608 0.80126,-0.51853 0.94981,-0.51655 0.33748,0.005 1.11151,-0.73243 1.11591,-1.06244 0.005,-0.39358 -1.04045,-0.29777 -1.85729,0.17017 -0.62369,0.35728 -1.33781,1.31507 -1.34431,1.80302 -0.004,0.26893 0.49579,0.0956 1.13588,-0.3942 z m 21.64794,-1.67687 c 0.004,-0.31684 -0.65093,-1.21831 -0.88772,-1.22147 -0.0398,-5.3e-4 -0.28898,0.23205 -0.55371,0.51685 -0.46592,0.50123 -0.46121,0.52618 0.14705,0.77901 0.90807,0.37745 1.28864,0.35557 1.29438,-0.0744 z m -2.13733,-2.56118 c 0.41806,0.006 0.84082,-0.0684 0.93944,-0.16445 0.27212,-0.26495 -0.61889,-1.15431 -1.16375,-1.16158 -0.8158,-0.0109 -2.29499,0.80656 -2.58969,1.43114 -0.4047,0.85769 -0.12864,0.96175 1.03202,0.389 0.56202,-0.27734 1.36391,-0.49968 1.78198,-0.49411 z m -2.10937,-1.61578 c 1.82848,-0.61538 2.40451,-0.62806 3.00892,-0.0662 0.97774,0.90887 1.5331,-0.51046 0.69758,-1.78282 -0.30733,-0.46802 -0.85548,-0.92529 -1.2181,-1.01617 -0.90459,-0.22668 -9.25944,-0.13552 -9.2626,0.10112 -0.001,0.10472 0.48871,0.41501 1.08912,0.68954 0.6004,0.27453 1.31925,0.69402 1.59744,0.93221 0.27818,0.23818 0.8196,0.70502 1.20315,1.03741 0.85164,0.73802 0.98863,0.74301 2.88449,0.10498 z"
       id="path120"
       sodipodi:nodetypes="cccssccccccccscscssccscccccsssccsscsssccssssssccscsccscccssscsccssssccssscsccscsscccccscssssscssscccsscssssssssscssssssssssssssssccssccssccsccccccssscscsssssccccssccccccsscssscssscsscsccsssssccscccscsccscssccscssccccccscscccccscsccscccscssssccsscsscsccscscccccsscccccsscccscccsssscsssscsscsccssccccsccccccscccscssscsscccscccsscccssssccsccccscssssccscscsccc" />
  </g>
</svg>
