<svg xmlns="http://www.w3.org/2000/svg" viewBox="0 0 160 160"><g fill="black"><path d="M504.16,384.26 C505.36,385.24 506.16,386.07 507.12,386.64 C510.44,388.61 513.72,390.72 517.21,392.35 C522.23,394.67 527.49,396.27 533.14,396.11 C535.27,396.05 537.40,396.22 539.52,396.22 C541.10,396.21 542.67,396.09 544.31,396.01 C544.20,394.89 543.94,394.05 542.95,393.48 C534.90,388.80 526.30,385.66 517.14,384.05 C513.81,383.47 510.44,383.04 507.05,383.58 C506.22,383.71 505.40,383.96 504.16,384.26 Z M550.84,347.95 C550.31,349.33 549.78,350.40 549.49,351.54 C548.80,354.28 548.10,357.03 547.63,359.82 C546.50,366.45 546.44,373.05 548.68,379.52 C549.37,381.53 549.89,383.59 550.56,385.61 C551.03,386.99 551.61,388.34 552.15,389.74 C553.34,389.15 553.94,388.42 554.21,387.13 C555.25,382.14 555.77,377.12 555.82,372.04 C555.89,365.90 555.44,359.84 553.75,353.91 C553.18,351.92 552.44,350.00 550.84,347.95 Z M560.50,395.22 C562.09,396.53 562.09,396.53 563.76,396.35 C568.60,395.83 573.34,394.87 577.99,393.42 C583.90,391.57 589.64,389.35 594.77,385.84 C596.33,384.77 597.68,383.39 599.09,382.11 C599.32,381.90 599.38,381.50 599.61,381.00 C598.20,380.95 597.00,380.79 595.82,380.90 C592.24,381.22 588.62,381.41 585.10,382.08 C579.84,383.09 574.75,384.73 570.33,387.96 C568.21,389.50 566.02,390.95 563.91,392.49 C562.76,393.32 561.70,394.25 560.50,395.22 Z M557.88,404.88 C557.17,406.07 557.06,407.11 557.75,408.20 C557.98,408.57 558.14,408.98 558.32,409.38 C562.21,417.84 567.53,425.31 574.18,431.82 C576.17,433.77 578.29,435.57 580.79,436.87 C581.53,437.25 582.26,437.75 583.44,437.64 C583.11,436.40 582.96,435.26 582.51,434.24 C580.92,430.60 579.44,426.89 577.52,423.42 C575.36,419.51 572.72,415.86 569.15,413.04 C566.63,411.05 564.05,409.12 561.46,407.22 C560.32,406.39 559.10,405.67 557.88,404.88 Z M547.87,405.38 C546.60,405.06 545.71,405.30 544.79,406.13 C537.54,412.68 531.72,420.32 527.34,429.04 C525.97,431.78 524.84,434.62 524.43,437.69 C524.35,438.29 524.42,438.92 524.42,439.88 C525.63,439.11 526.67,438.61 527.50,437.87 C530.44,435.27 533.50,432.76 536.16,429.90 C539.82,425.97 542.85,421.57 544.44,416.32 C545.14,414.03 546.02,411.79 546.75,409.50 C547.18,408.17 547.49,406.79 547.87,405.38 Z M563.45,381.86 C564.90,380.64 566.35,379.41 567.82,378.19 C570.38,376.06 572.84,373.80 575.53,371.85 C584.19,365.60 593.44,365.25 602.95,369.61 C611.35,373.46 613.16,383.14 611.32,388.82 C610.85,390.30 610.22,391.86 609.23,393.03 C605.22,397.81 600.41,401.52 594.15,402.85 C588.77,403.98 583.33,404.22 577.85,403.72 C575.80,403.54 573.75,403.33 571.70,403.13 C571.64,403.24 571.59,403.35 571.53,403.46 C571.98,403.78 572.42,404.14 572.89,404.43 C575.68,406.15 578.50,407.82 581.26,409.57 C582.92,410.62 584.55,411.72 586.10,412.94 C591.43,417.13 594.27,422.77 595.34,429.38 C595.93,433.04 595.72,436.65 594.67,440.23 C592.64,447.17 583.60,452.93 575.70,450.77 C575.33,450.67 574.96,450.58 574.61,450.42 C568.56,447.68 563.38,443.97 560.25,437.85 C557.44,432.36 555.54,426.59 554.39,420.55 C554.24,419.74 554.04,418.95 553.85,418.15 C553.81,418.02 553.68,417.92 553.43,417.60 C552.95,419.51 552.52,421.25 552.09,422.98 C551.32,426.05 550.66,429.15 549.76,432.19 C546.63,442.68 539.38,448.73 528.86,450.93 C518.93,453.02 511.32,445.08 510.03,438.73 C509.65,436.82 509.59,434.92 510.00,433.04 C510.47,430.86 511.02,428.68 511.70,426.55 C512.74,423.27 514.65,420.49 517.03,418.02 C521.23,413.65 526.05,410.11 531.33,407.17 C532.28,406.64 533.22,406.10 534.13,405.25 C533.69,405.22 533.25,405.15 532.81,405.17 C528.56,405.45 524.32,405.83 520.06,406.03 C509.43,406.54 501.43,401.96 495.76,393.12 C494.84,391.67 494.20,389.99 493.65,388.35 C491.39,381.64 495.78,370.41 505.14,368.69 C511.79,367.47 518.25,367.89 524.35,371.32 C529.04,373.97 533.39,377.03 537.35,380.67 C538.22,381.48 539.12,382.27 540.00,383.07 C540.11,383.02 540.21,382.97 540.31,382.92 C540.15,382.45 540.03,381.97 539.84,381.51 C538.50,378.23 537.13,374.96 535.81,371.67 C534.75,369.03 533.79,366.35 533.42,363.52 C532.40,355.50 534.86,348.55 539.98,342.44 C541.29,340.88 542.85,339.60 544.61,338.57 C552.31,334.08 562.89,337.33 566.70,345.35 C569.09,350.36 570.53,355.56 569.70,361.19 C568.88,366.84 567.29,372.27 564.93,377.47 C564.52,378.37 564.10,379.26 563.70,380.15 C563.49,380.64 563.32,381.14 563.13,381.64 C563.23,381.71 563.34,381.79 563.45,381.86 Z"/></g></svg>